<mxfile host="app.diagrams.net" modified="2023-11-13T08:30:37.989Z" agent="Mozilla/5.0 (Macintosh; Intel Mac OS X 10_15_7) AppleWebKit/537.36 (KHTML, like Gecko) Chrome/120.0.0.0 Safari/537.36 Edg/120.0.0.0" version="22.1.0" etag="ybB1t7eNIjJvsqst6gP8" type="github">
  <diagram name="Page-1" id="QR13LYVDM_UBqeWPz9cc">
    <mxGraphModel>
      <root>
        <mxCell id="0" />
        <mxCell id="1" parent="0" />
      </root>
    </mxGraphModel>
  </diagram>
</mxfile>
